<svg version="1.1" id="Layer_1" 
xmlns="http://www.w3.org/2000/svg"
 xmlns:xlink="http://www.w3.org/1999/xlink"
  x="0px" 
  y="0px" 
  width="100%" 
  viewBox="0 0 128 91"
   enable-background="new 0 0 128 91" 
   xml:space="preserve">
	
	<circle r="18" cx="18" cy="18" fill="red" />
	<path fill="#FEFDFD" opacity="1.000000" stroke="none" 
	d="M80.000000,92.000000 
	C53.333332,92.000000 27.166666,92.000000 1.000000,92.000000 
	C1.000000,61.666668 1.000000,31.333334 1.000000,1.000000 
	C43.666668,1.000000 86.333336,1.000000 129.000000,1.000000 
	C129.000000,31.333334 129.000000,61.666668 129.000000,92.000000 
	C112.833336,92.000000 96.666664,92.000000 80.000000,92.000000 
	M69.730927,87.937546 
	C75.600967,86.430412 77.855019,82.953049 77.226204,76.688797 
	C76.575027,70.201683 77.081291,63.598373 77.081291,56.255623 
	C82.871880,59.350044 87.731880,61.947174 92.531166,64.511856 
	C94.743904,57.792366 92.272339,54.139011 86.537628,51.998871 
	C84.067314,51.076969 81.768684,49.614773 79.534729,48.176441 
	C78.542145,47.537373 77.252136,46.377205 77.211143,45.406517 
	C76.985069,40.053612 77.103050,34.686176 77.103050,28.684397 
	C85.494759,33.231350 93.028435,37.313389 100.562111,41.395424 
	C101.001144,41.152683 101.440170,40.909946 101.879204,40.667206 
	C101.147972,37.694519 101.381363,33.153069 99.524368,32.011211 
	C89.643562,25.935553 79.239037,20.711632 68.315193,15.109834 
	C59.483566,20.087992 50.636642,25.039272 41.825619,30.053635 
	C35.818565,33.472256 35.350433,34.834236 37.492889,41.917847 
	C45.115078,37.608746 52.716328,33.311481 60.532280,28.892839 
	C60.532280,44.275154 60.532280,59.079643 60.532280,74.518684 
	C55.517464,71.763000 50.935551,69.455872 46.623249,66.723259 
	C45.581787,66.063309 45.008686,64.013901 44.949062,62.573284 
	C44.747074,57.692589 44.871986,52.798363 44.871986,47.016285 
	C42.135506,48.535130 40.192879,49.424709 38.460217,50.618927 
	C35.812237,52.444023 35.535179,69.999153 38.312351,71.528214 
	C48.462482,77.116692 58.762283,82.433334 69.730927,87.937546z" />
	<path fill="#272324" opacity="1.000000" stroke="none" d="
M69.005699,87.852379 
	C58.762283,82.433334 48.462482,77.116692 38.312351,71.528214 
	C35.535179,69.999153 35.812237,52.444023 38.460217,50.618927 
	C40.192879,49.424709 42.135506,48.535130 44.871986,47.016285 
	C44.871986,52.798363 44.747074,57.692589 44.949062,62.573284 
	C45.008686,64.013901 45.581787,66.063309 46.623249,66.723259 
	C50.935551,69.455872 55.517464,71.763000 60.532280,74.518684 
	C60.532280,59.079643 60.532280,44.275154 60.532280,28.892839 
	C52.716328,33.311481 45.115078,37.608746 37.492889,41.917847 
	C35.350433,34.834236 35.818565,33.472256 41.825619,30.053635 
	C50.636642,25.039272 59.483566,20.087992 68.649597,15.606768 
	C68.991226,40.019928 68.998459,63.936153 69.005699,87.852379 
z" />
	<path fill="#E42826" opacity="1.000000" stroke="none" d="
M69.368317,87.894958 
	C68.998459,63.936153 68.991226,40.019928 68.999893,15.648287 
	C79.239037,20.711632 89.643562,25.935553 99.524368,32.011211 
	C101.381363,33.153069 101.147972,37.694519 101.879204,40.667206 
	C101.440170,40.909946 101.001144,41.152683 100.562111,41.395424 
	C93.028435,37.313389 85.494759,33.231350 77.103050,28.684397 
	C77.103050,34.686176 76.985069,40.053612 77.211143,45.406517 
	C77.252136,46.377205 78.542145,47.537373 79.534729,48.176441 
	C81.768684,49.614773 84.067314,51.076969 86.537628,51.998871 
	C92.272339,54.139011 94.743904,57.792366 92.531166,64.511856 
	C87.731880,61.947174 82.871880,59.350044 77.081291,56.255623 
	C77.081291,63.598373 76.575027,70.201683 77.226204,76.688797 
	C77.855019,82.953049 75.600967,86.430412 69.368317,87.894958 
z" />
</svg>
